<?xml version="1.0" encoding="UTF-8"?>
<svg xmlns="http://www.w3.org/2000/svg" viewBox="0 0 200 200">
  <defs>
    <style>
      .cls-1 {
        fill: #f8971d;
      }

      .cls-2 {
        opacity: .2;
      }

      .cls-3 {
        fill: #f8f0e4;
      }
    </style>
  </defs>
  <g id="Layer_1" data-name="Layer 1">
    <rect class="cls-3" x="0" y="0" width="200" height="200" rx="100" ry="100"/>
  </g>
  <g id="big">
    <g class="cls-2">
      <polygon class="cls-1" points="61.53 102.23 61.53 83.37 82.56 83.37 82.56 71.83 61.53 71.83 61.53 52.97 95.78 52.97 95.78 41.43 49.98 41.43 49.98 113.77 95.78 113.77 95.78 102.23 61.53 102.23"/>
      <polygon class="cls-1" points="153.12 113.77 107.32 113.77 107.32 102.23 141.57 52.97 107.32 52.97 107.32 41.43 153.12 41.43 153.12 52.97 118.87 102.23 153.12 102.23 153.12 113.77"/>
      <polygon class="cls-1" points="82.31 152.5 82.31 143.44 92.42 143.44 92.42 137.89 82.31 137.89 82.31 128.82 98.77 128.82 98.77 123.27 76.76 123.27 76.76 158.05 98.77 158.05 98.77 152.5 82.31 152.5"/>
      <path class="cls-1" d="m54.74,158.05v-5.55s0-9.06,0-9.06h10.96c3.04,0,5.51-2.47,5.51-5.51v-9.15c0-1.52-.61-2.89-1.61-3.9-1-.99-2.38-1.61-3.9-1.61h-16.51v34.78h5.55Zm10.96-20.16h-10.96v-9.07s10.96,0,10.96,0v9.07Z"/>
      <polygon class="cls-1" points="65.7 158.05 54.74 143.44 60.29 143.44 71.25 158.05 65.7 158.05"/>
      <path class="cls-1" d="m125.03,152.71l-5.6-23.68-1.32-5.55h-5.55l-1.32,5.55-1.37,5.79-5.55,23.44h5.55l1.03-5.55,1.69-9.06h5.46l1.69,9.06,1.03,5.55h5.55l-1.31-5.55Zm-11.39-14.62l1.69-9.06,1.69,9.06h-3.38Z"/>
      <path class="cls-1" d="m152.45,129.02c-.49-.85-1.08-1.63-1.77-2.32-2-2-4.75-3.23-7.79-3.23h-11v34.78s11,0,11,0c4.09,0,7.66-2.23,9.56-5.55.93-1.61,1.46-3.48,1.46-5.46v-12.76c0-1.99-.53-3.86-1.46-5.46Zm-15.01,9.07v-9.07h2.73c2.29,0,4.36.93,5.85,2.43,1.5,1.5,2.43,3.57,2.43,5.86v7.11c0,4.58-3.7,8.29-8.28,8.29h-2.73v-9.07s0-5.55,0-5.55Z"/>
    </g>
  </g>
</svg>