<?xml version="1.0" encoding="UTF-8"?>
<svg id="Layer_1" data-name="Layer 1" xmlns="http://www.w3.org/2000/svg" viewBox="0 0 200 200">
  <defs>
    <style>
      .cls-1 {
        fill: #f8971d;
      }

      .cls-2 {
        opacity: .2;
      }

      .cls-3 {
        fill: #f8f0e4;
      }
    </style>
  </defs>
  <rect class="cls-3" width="200" height="200"/>
  <g class="cls-2">
    <polygon class="cls-1" points="80.97 123.03 70.67 112.72 82.16 101.22 75.85 94.91 64.35 106.41 54.05 96.1 72.77 77.37 66.46 71.06 41.42 96.1 80.97 135.65 106.01 110.61 99.7 104.3 80.97 123.03"/>
    <polygon class="cls-1" points="137.36 79.27 112.32 104.3 106.01 97.99 97.81 52.34 79.08 71.06 72.77 64.75 97.81 39.71 104.12 46.03 112.32 91.68 131.05 72.95 137.36 79.27"/>
    <polygon class="cls-1" points="119.82 139.15 114.86 134.19 120.39 128.67 117.36 125.63 111.83 131.16 106.87 126.2 115.87 117.2 112.84 114.17 100.81 126.2 119.82 145.22 131.85 133.18 128.82 130.15 119.82 139.15"/>
    <path class="cls-1" d="m107.78,157.25l-3.04-3.04-4.95-4.95,5.99-5.99c1.66-1.66,1.66-4.36,0-6.02l-5-5c-.83-.83-1.92-1.25-3.01-1.25-1.09,0-2.18.42-3.01,1.25l-9.02,9.02,19.01,19.01,3.03-3.03Zm-5.03-17.02l-5.99,5.99-4.96-4.96,5.99-5.99,4.96,4.96Z"/>
    <polygon class="cls-1" points="113.77 151.26 99.79 149.26 102.83 146.23 116.81 148.23 113.77 151.26"/>
    <path class="cls-1" d="m143.29,115.91l-16.01-9.88-3.76-2.32-3.04,3.04,2.32,3.76,2.42,3.91,9.78,15.84,3.03-3.03-2.47-3.6-4.03-5.88,2.99-2.99,5.88,4.03,3.6,2.47,3.04-3.04-3.75-2.32Zm-14.22-1.76l-4.03-5.88,5.88,4.03-1.85,1.85Z"/>
    <path class="cls-1" d="m145.33,87.97c-.73-.2-1.48-.3-2.24-.3-2.18,0-4.36.83-6.02,2.49l-6.02,6.02,19.01,19.01,6.02-6.02c2.24-2.24,2.97-5.41,2.19-8.26-.37-1.39-1.1-2.7-2.19-3.78l-6.97-6.97c-1.09-1.09-2.4-1.82-3.78-2.19Zm-3.25,13.17l-4.96-4.96,1.49-1.49c1.25-1.25,2.89-1.87,4.53-1.87,1.64,0,3.28.63,4.53,1.88l3.89,3.89c2.5,2.5,2.51,6.55,0,9.06l-1.49,1.49-4.96-4.96-3.03-3.03Z"/>
  </g>
</svg>